<svg width="100" height="100" viewBox="0 0 100 100" fill="none" xmlns="http://www.w3.org/2000/svg">
<circle cx="50" cy="50" r="47.5" fill="white" stroke="#C4C4C4" stroke-width="5"/>
<path d="M55.118 54.8353L57.1041 59.6771C57.1041 59.6771 66.0323 61.8264 66.0323 66.9385C66.0323 70.5706 62.0601 70.5706 62.0601 70.5706H51.4815L46.2732 67.2902" stroke="#C4C4C4" stroke-width="3" stroke-linecap="round" stroke-linejoin="round"/>
<path d="M43.2151 54.8353L41.2313 59.6771C41.2313 59.6771 32.3008 61.8264 32.3008 66.9385C32.3008 70.5706 36.273 70.5706 36.273 70.5706H41.0647L46.273 67.2902L52.6387 62.6977" stroke="#C4C4C4" stroke-width="3" stroke-linecap="round" stroke-linejoin="round"/>
<path d="M28.3334 57.2549C28.3334 57.2549 33.294 56.0451 36.2709 54.8353C39.2454 37.8877 48.1713 39.0975 49.1667 39.0975C50.1598 39.0975 59.088 37.8877 62.0625 54.8353C65.0394 56.0425 70 57.2549 70 57.2549" stroke="#C4C4C4" stroke-width="3" stroke-linecap="round" stroke-linejoin="round"/>
<path d="M49.1666 33.8306C50.3945 33.8306 51.572 33.2776 52.4402 32.2933C53.3085 31.309 53.7962 29.974 53.7962 28.582C53.7962 27.1899 53.3085 25.8549 52.4402 24.8706C51.572 23.8863 50.3945 23.3333 49.1666 23.3333C47.9388 23.3333 46.7612 23.8863 45.893 24.8706C45.0248 25.8549 44.537 27.1899 44.537 28.582C44.537 29.974 45.0248 31.309 45.893 32.2933C46.7612 33.2776 47.9388 33.8306 49.1666 33.8306Z" stroke="#C4C4C4" stroke-width="3" stroke-linecap="round" stroke-linejoin="round"/>
</svg>
